<svg width="151" height="68" viewBox="0 0 151 68" fill="none" xmlns="http://www.w3.org/2000/svg">
<g clip-path="url(#clip0_2003_2851)">
<mask id="mask0_2003_2851" style="mask-type:luminance" maskUnits="userSpaceOnUse" x="0" y="0" width="60" height="68">
<path d="M0 0H59.7127V67.7135H0V0Z" fill="white"/>
</mask>
<g mask="url(#mask0_2003_2851)">
<path d="M2.06925 18.1587L29.8564 2.37708L57.6465 18.1587V49.722L29.8564 65.5189L2.06925 49.722V18.1587ZM0 16.9792V50.9046L29.8564 67.8657L59.7127 50.9046V16.9792L29.8564 0.0180664L0 16.9792Z" fill="white"/>
</g>
</g>
<g clip-path="url(#clip1_2003_2851)">
<path d="M26.0647 25.9849L19.3149 42.6504H15.78L9.03027 25.9849H12.1711C12.5067 25.9849 12.7777 26.0641 12.984 26.2165C13.1965 26.3719 13.3566 26.57 13.4644 26.8139L16.7284 35.7379C16.8762 36.128 17.024 36.5547 17.1718 37.018C17.3196 37.4813 17.4582 37.9659 17.5906 38.4688C17.6953 37.9659 17.8154 37.4813 17.9478 37.018C18.0863 36.5547 18.2341 36.128 18.3912 35.7379L21.6305 26.8139C21.7106 26.6036 21.8584 26.4116 22.074 26.2409C22.2957 26.0702 22.5697 25.9849 22.8992 25.9849H26.0647Z" fill="white"/>
</g>
<g clip-path="url(#clip2_2003_2851)">
<path d="M50.3327 25.9849L45.1349 42.6504H41.5999L38.4345 32.3243C38.3667 32.1628 38.3051 31.983 38.2497 31.7879C38.2005 31.5929 38.145 31.3917 38.0896 31.1784C38.0403 31.3917 37.9849 31.5929 37.9295 31.7879C37.8802 31.983 37.8217 32.1628 37.757 32.3243L34.5423 42.6504H31.0073L25.8096 25.9849H29.0859C29.4308 25.9849 29.7141 26.0641 29.9358 26.2165C30.1636 26.3628 30.3114 26.5639 30.3792 26.8139L32.6948 35.5063C32.7687 35.7836 32.8364 36.0854 32.9042 36.4084C32.9688 36.7345 33.0396 37.0729 33.1135 37.4203C33.2521 36.7071 33.4215 36.0671 33.6185 35.5063L36.3529 26.8139C36.4176 26.6036 36.5623 26.4116 36.784 26.2409C37.0119 26.0702 37.2921 25.9849 37.6216 25.9849H38.7793C39.115 25.9849 39.386 26.0641 39.5923 26.2165C39.8047 26.3719 39.9649 26.57 40.0726 26.8139L42.7701 35.5063C42.9733 36.0427 43.1457 36.6523 43.2874 37.335C43.3428 36.9875 43.4044 36.6614 43.4721 36.3597C43.5368 36.061 43.6076 35.7745 43.6815 35.5063L45.9848 26.8139C46.0494 26.5944 46.1972 26.4055 46.4282 26.2409C46.6561 26.0702 46.9363 25.9849 47.2657 25.9849H50.3327Z" fill="white"/>
</g>
<g clip-path="url(#clip3_2003_2851)">
<path d="M82.5343 22.0947L76.3758 37.3095H73.1487L66.9902 22.0947H69.8601C70.1619 22.0947 70.4082 22.1679 70.5991 22.3142C70.7962 22.4544 70.944 22.6372 71.0425 22.8628L74.0109 31.0066C74.1495 31.3571 74.285 31.7441 74.4174 32.1647C74.5559 32.5884 74.6822 33.0303 74.7992 33.4936C74.8977 33.0303 75.0086 32.5884 75.1318 32.1647C75.2549 31.7441 75.3904 31.3571 75.5382 31.0066L78.482 22.8628C78.562 22.6677 78.7037 22.494 78.9008 22.3386C79.104 22.177 79.3565 22.0947 79.6521 22.0947H82.5343Z" fill="white"/>
</g>
<g clip-path="url(#clip4_2003_2851)">
<path d="M89.0117 32.9084C88.3619 32.9328 87.8231 32.9907 87.3981 33.0791C86.9794 33.1614 86.6468 33.262 86.4005 33.3839C86.1541 33.5058 85.9817 33.6491 85.8831 33.8106C85.7908 33.9752 85.7477 34.1489 85.7477 34.3348C85.7477 34.7006 85.8462 34.9627 86.0433 35.1151C86.2465 35.2614 86.5483 35.3345 86.9424 35.3345C87.3673 35.3345 87.7368 35.2614 88.0509 35.1151C88.3712 34.9688 88.6914 34.7341 89.0117 34.408V32.9084ZM83.1241 27.9831C83.7893 27.4071 84.5221 26.9804 85.3289 26.7031C86.1326 26.4196 86.9947 26.2764 87.9154 26.2764C88.5806 26.2764 89.1749 26.383 89.7014 26.5933C90.2341 26.8067 90.6868 27.1023 91.0563 27.4833C91.4258 27.8582 91.7091 28.3093 91.9061 28.8365C92.1032 29.3577 92.2017 29.9277 92.2017 30.5433V37.3095H90.6991C90.3942 37.3095 90.1602 37.2699 89.997 37.1876C89.84 37.0992 89.7076 36.9255 89.6029 36.6634L89.3688 36.066C89.0979 36.2946 88.8331 36.4988 88.5806 36.6755C88.325 36.8462 88.0632 36.9925 87.7923 37.1144C87.5213 37.2363 87.2318 37.3247 86.9301 37.3826C86.6252 37.4466 86.2834 37.4802 85.9078 37.4802C85.4151 37.4802 84.9624 37.4131 84.5529 37.2851C84.1403 37.1571 83.7923 36.9651 83.506 36.7121C83.2258 36.4622 83.0071 36.1513 82.8532 35.7856C82.6961 35.4137 82.6191 34.981 82.6191 34.4933C82.6191 34.1032 82.7177 33.71 82.9147 33.3107C83.1118 32.9054 83.4505 32.5396 83.9371 32.2135C84.4205 31.8813 85.0733 31.604 85.8955 31.3845C86.7238 31.159 87.7615 31.031 89.0117 31.0066V30.5433C89.0117 29.9094 88.8792 29.4552 88.6175 29.1779C88.3527 28.8944 87.9801 28.7512 87.4967 28.7512C87.1087 28.7512 86.7946 28.7939 86.5483 28.8731C86.3019 28.9554 86.0802 29.0499 85.8831 29.1535C85.6922 29.2602 85.5044 29.3547 85.3166 29.4339C85.1349 29.5162 84.9163 29.5558 84.6638 29.5558C84.4421 29.5558 84.2511 29.504 84.0972 29.3973C83.9401 29.2846 83.8139 29.1505 83.7154 28.995L83.1241 27.9831Z" fill="white"/>
</g>
<g clip-path="url(#clip5_2003_2851)">
<path d="M97.5531 21.6802V37.3094H94.2891V21.6802H97.5531Z" fill="white"/>
</g>
<g clip-path="url(#clip6_2003_2851)">
<path d="M103.114 26.4835V37.3093H99.8501V26.4835H103.114ZM103.459 23.521C103.459 23.774 103.404 24.0147 103.299 24.2403C103.191 24.4689 103.046 24.667 102.868 24.8376C102.686 25.0083 102.474 25.1485 102.227 25.2521C101.987 25.3497 101.728 25.3984 101.451 25.3984C101.187 25.3984 100.937 25.3497 100.7 25.2521C100.469 25.1485 100.263 25.0083 100.084 24.8376C99.9025 24.667 99.7639 24.4689 99.6654 24.2403C99.5668 24.0147 99.5176 23.774 99.5176 23.521C99.5176 23.2528 99.5668 23.0059 99.6654 22.7773C99.7639 22.5426 99.9025 22.3384 100.084 22.1677C100.263 21.9971 100.469 21.863 100.7 21.7654C100.937 21.6679 101.187 21.6191 101.451 21.6191C101.728 21.6191 101.987 21.6679 102.227 21.7654C102.474 21.863 102.686 21.9971 102.868 22.1677C103.046 22.3384 103.191 22.5426 103.299 22.7773C103.404 23.0059 103.459 23.2528 103.459 23.521Z" fill="white"/>
</g>
<g clip-path="url(#clip7_2003_2851)">
<path d="M126.729 22.0947L121.987 37.3095H118.748L115.866 27.8856C115.807 27.7393 115.755 27.5778 115.705 27.3979C115.656 27.2212 115.607 27.0322 115.558 26.8371C115.508 27.0322 115.459 27.2212 115.41 27.3979C115.361 27.5778 115.305 27.7393 115.25 27.8856L112.318 37.3095H109.091L104.337 22.0947H107.342C107.644 22.0947 107.9 22.1648 108.106 22.302C108.318 22.4422 108.457 22.6281 108.525 22.8628L110.631 30.7993C110.696 31.0431 110.757 31.3174 110.816 31.6161C110.88 31.9087 110.945 32.2196 111.013 32.5427C111.136 31.8843 111.287 31.3053 111.468 30.7993L113.969 22.8628C114.024 22.6677 114.157 22.494 114.363 22.3386C114.575 22.177 114.831 22.0947 115.127 22.0947H116.174C116.485 22.0947 116.734 22.1679 116.925 22.3142C117.113 22.4544 117.257 22.6372 117.356 22.8628L119.832 30.7993C120.01 31.2809 120.164 31.8325 120.287 32.4573C120.343 32.1404 120.401 31.8478 120.46 31.5796C120.525 31.3053 120.589 31.0431 120.657 30.7993L122.763 22.8628C122.819 22.6616 122.951 22.4818 123.157 22.3264C123.37 22.174 123.625 22.0947 123.921 22.0947H126.729Z" fill="white"/>
</g>
<g clip-path="url(#clip8_2003_2851)">
<path d="M134.679 30.5921C134.679 30.3422 134.645 30.0923 134.58 29.8485C134.512 29.6046 134.402 29.3913 134.248 29.2023C134.1 29.0073 133.903 28.8488 133.656 28.7269C133.41 28.605 133.108 28.544 132.757 28.544C132.141 28.544 131.655 28.7238 131.304 29.0804C130.95 29.4309 130.719 29.9338 130.614 30.5921H134.679ZM130.565 32.4696C130.669 33.3809 130.95 34.0392 131.402 34.4446C131.852 34.853 132.431 35.0542 133.139 35.0542C133.524 35.0542 133.853 35.0115 134.124 34.92C134.395 34.8317 134.636 34.7311 134.851 34.6153C135.073 34.5025 135.27 34.4019 135.442 34.3105C135.621 34.2221 135.812 34.1764 136.009 34.1764C136.271 34.1764 136.468 34.2709 136.6 34.4568L137.549 35.615C137.21 35.999 136.846 36.3099 136.452 36.5537C136.064 36.7914 135.667 36.9773 135.258 37.1145C134.845 37.2547 134.435 37.3461 134.026 37.3949C133.613 37.4497 133.219 37.4802 132.843 37.4802C132.08 37.4802 131.359 37.3583 130.688 37.1145C130.014 36.8646 129.425 36.4927 128.927 36.0051C128.425 35.5174 128.027 34.914 127.732 34.1886C127.442 33.4662 127.301 32.625 127.301 31.665C127.301 30.9426 127.424 30.2569 127.67 29.6046C127.923 28.9555 128.286 28.3855 128.754 27.8979C129.222 27.4102 129.783 27.0262 130.442 26.7397C131.107 26.4562 131.858 26.313 132.696 26.313C133.425 26.313 134.091 26.4288 134.691 26.6543C135.288 26.8738 135.803 27.1969 136.231 27.6175C136.665 28.0411 137 28.5623 137.241 29.1779C137.487 29.7967 137.61 30.4946 137.61 31.2748C137.61 31.5187 137.598 31.7198 137.573 31.8722C137.555 32.0277 137.518 32.1496 137.462 32.238C137.413 32.3294 137.339 32.3904 137.241 32.4208C137.148 32.4544 137.031 32.4696 136.883 32.4696H130.565Z" fill="white"/>
</g>
<g clip-path="url(#clip9_2003_2851)">
<path d="M142.516 34.3591C142.762 34.6273 143.027 34.8194 143.317 34.9321C143.612 35.0388 143.908 35.0906 144.203 35.0906C144.505 35.0906 144.788 35.0357 145.053 34.9199C145.315 34.8072 145.537 34.6212 145.718 34.3591C145.906 34.1001 146.054 33.7587 146.162 33.3351C146.266 32.9053 146.322 32.3719 146.322 31.738C146.322 31.2016 146.279 30.7444 146.199 30.3604C146.116 29.9794 145.995 29.6716 145.842 29.4338C145.684 29.19 145.487 29.0163 145.25 28.9096C145.01 28.806 144.739 28.7511 144.437 28.7511C144.043 28.7511 143.698 28.8365 143.403 29.0071C143.107 29.1778 142.812 29.4338 142.516 29.7752V34.3591ZM142.516 27.6295C142.941 27.2333 143.406 26.9163 143.908 26.6786C144.407 26.4348 144.97 26.3129 145.595 26.3129C146.211 26.3129 146.768 26.4409 147.27 26.6908C147.778 26.9438 148.213 27.3004 148.576 27.7636C148.936 28.2269 149.21 28.7877 149.401 29.446C149.598 30.0983 149.697 30.8237 149.697 31.6283C149.697 32.5061 149.58 33.3046 149.352 34.0178C149.13 34.734 148.813 35.3466 148.403 35.8587C147.991 36.3707 147.498 36.77 146.925 37.0534C146.359 37.3369 145.731 37.4801 145.041 37.4801C144.711 37.4801 144.416 37.4466 144.154 37.3826C143.899 37.3155 143.661 37.2302 143.44 37.1144C143.218 37.0016 143.015 36.8675 142.836 36.7121C142.664 36.5505 142.491 36.3707 142.319 36.1756L142.208 36.7242C142.15 36.9437 142.054 37.0991 141.925 37.1875C141.802 37.2698 141.632 37.3094 141.42 37.3094H139.252V21.6802H142.516V27.6295Z" fill="white"/>
</g>
<g clip-path="url(#clip10_2003_2851)">
<mask id="mask1_2003_2851" style="mask-type:luminance" maskUnits="userSpaceOnUse" x="67" y="40" width="84" height="12">
<path d="M151 40.917H67.4414V51.0602H151V40.917Z" fill="white"/>
</mask>
<g mask="url(#mask1_2003_2851)">
<path d="M70.0246 48.2631C69.7043 48.2631 69.4149 48.2021 69.1624 48.0802C68.9068 47.9583 68.7005 47.7693 68.5465 47.5072C68.3895 47.2481 68.3125 46.9159 68.3125 46.5075V43.6182H68.8668V46.5197C68.8668 46.9586 68.9715 47.2817 69.187 47.4828C69.4087 47.6779 69.692 47.7754 70.0369 47.7754C70.3818 47.7754 70.6589 47.6779 70.8744 47.4828C71.0869 47.2817 71.1947 46.9586 71.1947 46.5197V43.6182H71.7489V46.5075C71.7489 46.9159 71.6689 47.2481 71.5149 47.5072C71.3579 47.7693 71.1485 47.9583 70.8867 48.0802C70.6312 48.2021 70.3448 48.2631 70.0246 48.2631Z" fill="#D1F0FF"/>
<path d="M73.5078 48.1896V44.9589H74.0128L74.0498 45.4221C74.1545 45.2515 74.2961 45.1174 74.4685 45.0198C74.641 44.9223 74.838 44.8735 75.0598 44.8735C75.3215 44.8735 75.5432 44.9284 75.7249 45.032C75.9127 45.1387 76.0605 45.2972 76.1683 45.5075C76.273 45.3124 76.4269 45.16 76.624 45.0442C76.8272 44.9314 77.0459 44.8735 77.2768 44.8735C77.671 44.8735 77.982 44.9924 78.2129 45.2271C78.45 45.4557 78.5701 45.8123 78.5701 46.2999V48.1896H78.0158V46.3609C78.0158 46.0195 77.945 45.7696 77.8064 45.605C77.674 45.4343 77.48 45.349 77.2275 45.349C76.9627 45.349 76.7472 45.4526 76.5747 45.6538C76.4023 45.8488 76.3161 46.1384 76.3161 46.5194V48.1896H75.7618V46.3609C75.7618 46.0195 75.691 45.7696 75.5524 45.605C75.42 45.4343 75.226 45.349 74.9735 45.349C74.7087 45.349 74.4932 45.4526 74.3207 45.6538C74.1483 45.8488 74.0621 46.1384 74.0621 46.5194V48.1896H73.5078Z" fill="#D1F0FF"/>
<path d="M84.1276 48.2627C83.7335 48.2627 83.404 48.1652 83.1423 47.9701C82.8867 47.7751 82.7358 47.513 82.6865 47.1777H83.2531C83.2931 47.3484 83.3886 47.4947 83.5364 47.6166C83.6842 47.7385 83.8813 47.7994 84.1276 47.7994C84.3555 47.7994 84.5248 47.7507 84.6326 47.6532C84.7465 47.5556 84.805 47.4429 84.805 47.3118C84.805 47.1167 84.7311 46.9887 84.5833 46.9217C84.4417 46.8577 84.2446 46.7967 83.9921 46.7388C83.8104 46.7083 83.6349 46.6596 83.4625 46.5925C83.2901 46.5285 83.1423 46.434 83.0191 46.3121C82.9021 46.1902 82.8466 46.0317 82.8466 45.8366C82.8466 45.5623 82.9513 45.3338 83.1669 45.1539C83.3794 44.968 83.6657 44.8735 84.0291 44.8735C84.3739 44.8735 84.6572 44.9589 84.8789 45.1296C85.1007 45.3002 85.23 45.5502 85.2731 45.8732H84.7188C84.7004 45.7025 84.6326 45.5745 84.5094 45.4831C84.3863 45.3856 84.2261 45.3368 84.0291 45.3368C83.8228 45.3368 83.6657 45.3825 83.561 45.4709C83.4533 45.5532 83.4009 45.6599 83.4009 45.7879C83.4009 45.9189 83.4687 46.0195 83.6103 46.0927C83.7489 46.1658 83.9367 46.2329 84.1769 46.2877C84.3739 46.3304 84.5618 46.3822 84.7435 46.4462C84.9313 46.5133 85.0822 46.6047 85.1992 46.7266C85.3131 46.8485 85.3716 47.0283 85.3716 47.263C85.3778 47.5556 85.2669 47.7964 85.0391 47.9823C84.8174 48.1713 84.5125 48.2627 84.1276 48.2627Z" fill="#D1F0FF"/>
<path d="M87.3584 44.2398C87.2506 44.2398 87.1613 44.2032 87.0874 44.13C87.0135 44.0569 86.9766 43.9685 86.9766 43.8618C86.9766 43.7582 87.0135 43.6729 87.0874 43.6058C87.1613 43.5327 87.2506 43.4961 87.3584 43.4961C87.4631 43.4961 87.5555 43.5327 87.6294 43.6058C87.7033 43.6729 87.7402 43.7582 87.7402 43.8618C87.7402 43.9685 87.7033 44.0569 87.6294 44.13C87.5555 44.2032 87.4631 44.2398 87.3584 44.2398ZM87.0874 48.1897V44.9591H87.6417V48.1897H87.0874Z" fill="#D1F0FF"/>
<path d="M90.7155 48.2627C90.3214 48.2627 89.9919 48.1652 89.7301 47.9701C89.4746 47.7751 89.3237 47.513 89.2744 47.1777H89.841C89.881 47.3484 89.9765 47.4947 90.1243 47.6166C90.2721 47.7385 90.4692 47.7994 90.7155 47.7994C90.9434 47.7994 91.1127 47.7507 91.2205 47.6532C91.3344 47.5556 91.3929 47.4429 91.3929 47.3118C91.3929 47.1167 91.319 46.9887 91.1712 46.9217C91.0296 46.8577 90.8325 46.7967 90.58 46.7388C90.3983 46.7083 90.2228 46.6596 90.0504 46.5925C89.8779 46.5285 89.7301 46.434 89.607 46.3121C89.49 46.1902 89.4345 46.0317 89.4345 45.8366C89.4345 45.5623 89.5392 45.3338 89.7548 45.1539C89.9672 44.968 90.2536 44.8735 90.617 44.8735C90.9618 44.8735 91.2451 44.9589 91.4668 45.1296C91.6885 45.3002 91.8179 45.5502 91.861 45.8732H91.3067C91.2882 45.7025 91.2205 45.5745 91.0973 45.4831C90.9742 45.3856 90.814 45.3368 90.617 45.3368C90.4107 45.3368 90.2536 45.3825 90.1489 45.4709C90.0411 45.5532 89.9888 45.6599 89.9888 45.7879C89.9888 45.9189 90.0565 46.0195 90.1982 46.0927C90.3368 46.1658 90.5246 46.2329 90.7648 46.2877C90.9618 46.3304 91.1497 46.3822 91.3313 46.4462C91.5192 46.5133 91.6701 46.6047 91.7871 46.7266C91.901 46.8485 91.9595 47.0283 91.9595 47.263C91.9657 47.5556 91.8548 47.7964 91.627 47.9823C91.4053 48.1713 91.1004 48.2627 90.7155 48.2627Z" fill="#D1F0FF"/>
<path d="M94.9072 48.1897C94.6023 48.1897 94.3652 48.1226 94.1928 47.9824C94.0265 47.8361 93.9465 47.577 93.9465 47.2022V45.4222H93.3799V44.959H93.9465L94.0204 44.1787H94.5007V44.959H95.4615V45.4222H94.5007V47.2022C94.5007 47.4064 94.5408 47.5435 94.6239 47.6167C94.704 47.6837 94.8518 47.7142 95.0673 47.7142H95.3999V48.1897H94.9072Z" fill="#D1F0FF"/>
<path d="M98.4889 48.2627C98.1748 48.2627 97.8977 48.1926 97.6513 48.0555C97.4112 47.9183 97.2233 47.7233 97.0848 47.4703C96.9524 47.2204 96.8877 46.9186 96.8877 46.5681C96.8877 46.2359 96.9524 45.9433 97.0848 45.6904C97.2233 45.4313 97.4112 45.2332 97.6513 45.093C97.8977 44.9467 98.181 44.8735 98.5012 44.8735C98.8215 44.8735 99.0955 44.9467 99.3265 45.093C99.5543 45.2332 99.7329 45.4191 99.8561 45.6538C99.9793 45.8824 100.041 46.1262 100.041 46.3853C100.041 46.434 100.035 46.4828 100.029 46.5316C100.029 46.5803 100.029 46.6352 100.029 46.69H97.4296C97.445 46.943 97.5035 47.1503 97.6021 47.3118C97.7068 47.4764 97.8392 47.5983 97.9962 47.6775C98.1502 47.7598 98.3165 47.7994 98.4889 47.7994C98.7168 47.7994 98.9077 47.7507 99.0555 47.6532C99.2094 47.5495 99.3265 47.4063 99.4004 47.2265H99.9423C99.8592 47.5282 99.6898 47.7751 99.4373 47.9701C99.191 48.1652 98.8738 48.2627 98.4889 48.2627ZM98.4889 45.3368C98.2241 45.3368 97.9901 45.4191 97.7868 45.5806C97.5805 45.7361 97.4666 45.9677 97.442 46.2755H99.4989C99.4804 45.9829 99.3788 45.7574 99.191 45.5928C99.0001 45.4221 98.766 45.3368 98.4889 45.3368Z" fill="#D1F0FF"/>
<path d="M101.633 48.1896V44.9589H102.138L102.175 45.4221C102.279 45.2515 102.421 45.1174 102.594 45.0198C102.766 44.9223 102.963 44.8735 103.185 44.8735C103.446 44.8735 103.668 44.9284 103.85 45.032C104.038 45.1387 104.186 45.2972 104.293 45.5075C104.398 45.3124 104.552 45.16 104.749 45.0442C104.952 44.9314 105.171 44.8735 105.402 44.8735C105.796 44.8735 106.107 44.9924 106.338 45.2271C106.575 45.4557 106.695 45.8123 106.695 46.2999V48.1896H106.141V46.3609C106.141 46.0195 106.07 45.7696 105.931 45.605C105.799 45.4343 105.605 45.349 105.353 45.349C105.088 45.349 104.872 45.4526 104.7 45.6538C104.527 45.8488 104.441 46.1384 104.441 46.5194V48.1896H103.887V46.3609C103.887 46.0195 103.816 45.7696 103.677 45.605C103.545 45.4343 103.351 45.349 103.099 45.349C102.834 45.349 102.618 45.4526 102.446 45.6538C102.273 45.8488 102.187 46.1384 102.187 46.5194V48.1896H101.633Z" fill="#D1F0FF"/>
<path d="M109.476 48.2627C109.205 48.2627 108.977 48.217 108.798 48.1286C108.617 48.0402 108.481 47.9183 108.392 47.7629C108.309 47.6105 108.269 47.4459 108.269 47.2752C108.269 46.943 108.395 46.687 108.65 46.5072C108.903 46.3304 109.248 46.239 109.685 46.239H110.572V46.2024C110.572 45.9189 110.498 45.7025 110.35 45.5562C110.202 45.41 109.999 45.3368 109.747 45.3368C109.531 45.3368 109.346 45.3917 109.192 45.4953C109.035 45.602 108.937 45.7605 108.897 45.9708H108.33C108.355 45.7361 108.432 45.538 108.564 45.3734C108.703 45.2118 108.875 45.0899 109.081 45.0076C109.294 44.9193 109.516 44.8735 109.747 44.8735C110.205 44.8735 110.55 44.9954 110.781 45.2393C111.009 45.4831 111.126 45.8062 111.126 46.2024V48.1896H110.633L110.596 47.6044C110.504 47.7934 110.369 47.9518 110.19 48.0798C110.018 48.2018 109.777 48.2627 109.476 48.2627ZM109.562 47.7994C109.774 47.7994 109.956 47.7476 110.104 47.641C110.258 47.5373 110.375 47.3971 110.449 47.2265C110.529 47.0497 110.572 46.8607 110.572 46.6657H109.734C109.405 46.6657 109.174 46.7236 109.045 46.8363C108.912 46.943 108.847 47.0771 108.847 47.2386C108.847 47.4093 108.909 47.5495 109.032 47.6532C109.155 47.7507 109.331 47.7994 109.562 47.7994Z" fill="#D1F0FF"/>
<path d="M116.838 48.1899L115.113 43.6182H115.704L117.17 47.6047L118.636 43.6182H119.227L117.49 48.1899H116.838Z" fill="#D1F0FF"/>
<path d="M121.767 48.2627C121.496 48.2627 121.268 48.217 121.089 48.1286C120.908 48.0402 120.772 47.9183 120.683 47.7629C120.6 47.6105 120.56 47.4459 120.56 47.2752C120.56 46.943 120.686 46.687 120.941 46.5072C121.194 46.3304 121.539 46.239 121.976 46.239H122.863V46.2024C122.863 45.9189 122.789 45.7025 122.641 45.5562C122.493 45.41 122.29 45.3368 122.038 45.3368C121.822 45.3368 121.637 45.3917 121.483 45.4953C121.326 45.602 121.228 45.7605 121.188 45.9708H120.621C120.646 45.7361 120.723 45.538 120.855 45.3734C120.994 45.2118 121.166 45.0899 121.372 45.0076C121.585 44.9193 121.807 44.8735 122.038 44.8735C122.496 44.8735 122.841 44.9954 123.072 45.2393C123.3 45.4831 123.417 45.8062 123.417 46.2024V48.1896H122.924L122.887 47.6044C122.795 47.7934 122.66 47.9518 122.481 48.0798C122.309 48.2018 122.068 48.2627 121.767 48.2627ZM121.853 47.7994C122.065 47.7994 122.247 47.7476 122.395 47.641C122.549 47.5373 122.666 47.3971 122.74 47.2265C122.82 47.0497 122.863 46.8607 122.863 46.6657H122.025C121.696 46.6657 121.465 46.7236 121.336 46.8363C121.203 46.943 121.138 47.0771 121.138 47.2386C121.138 47.4093 121.2 47.5495 121.323 47.6532C121.446 47.7507 121.622 47.7994 121.853 47.7994Z" fill="#D1F0FF"/>
<path d="M125.108 48.1897V43.4961H125.663V48.1897H125.108Z" fill="#D1F0FF"/>
<path d="M127.762 44.2398C127.654 44.2398 127.565 44.2032 127.491 44.13C127.417 44.0569 127.38 43.9685 127.38 43.8618C127.38 43.7582 127.417 43.6729 127.491 43.6058C127.565 43.5327 127.654 43.4961 127.762 43.4961C127.866 43.4961 127.959 43.5327 128.033 43.6058C128.107 43.6729 128.144 43.7582 128.144 43.8618C128.144 43.9685 128.107 44.0569 128.033 44.13C127.959 44.2032 127.866 44.2398 127.762 44.2398ZM127.491 48.1897V44.9591H128.045V48.1897H127.491Z" fill="#D1F0FF"/>
<path d="M130.971 48.1899V44.0692H129.604V43.6182H132.904V44.0692H131.525V48.1899H130.971Z" fill="#D1F0FF"/>
<path d="M134.412 48.1896V44.9589H134.917L134.954 45.5684C135.059 45.3581 135.216 45.1905 135.422 45.0686C135.625 44.9406 135.881 44.8735 136.186 44.8735V45.4465H136.038C135.841 45.4465 135.659 45.4831 135.496 45.5562C135.33 45.6233 135.2 45.7361 135.102 45.8976C135.009 46.053 134.966 46.2725 134.966 46.5559V48.1896H134.412Z" fill="#D1F0FF"/>
<path d="M138.747 48.2627C138.476 48.2627 138.248 48.217 138.07 48.1286C137.888 48.0402 137.753 47.9183 137.663 47.7629C137.58 47.6105 137.54 47.4459 137.54 47.2752C137.54 46.943 137.666 46.687 137.922 46.5072C138.174 46.3304 138.519 46.239 138.956 46.239H139.843V46.2024C139.843 45.9189 139.769 45.7025 139.622 45.5562C139.474 45.41 139.271 45.3368 139.018 45.3368C138.803 45.3368 138.618 45.3917 138.464 45.4953C138.307 45.602 138.208 45.7605 138.168 45.9708H137.602C137.626 45.7361 137.703 45.538 137.836 45.3734C137.974 45.2118 138.147 45.0899 138.353 45.0076C138.565 44.9193 138.787 44.8735 139.018 44.8735C139.477 44.8735 139.822 44.9954 140.053 45.2393C140.281 45.4831 140.398 45.8062 140.398 46.2024V48.1896H139.905L139.868 47.6044C139.776 47.7934 139.64 47.9518 139.461 48.0798C139.289 48.2018 139.049 48.2627 138.747 48.2627ZM138.833 47.7994C139.046 47.7994 139.227 47.7476 139.375 47.641C139.529 47.5373 139.646 47.3971 139.72 47.2265C139.8 47.0497 139.843 46.8607 139.843 46.6657H139.006C138.676 46.6657 138.445 46.7236 138.316 46.8363C138.184 46.943 138.119 47.0771 138.119 47.2386C138.119 47.4093 138.181 47.5495 138.304 47.6532C138.427 47.7507 138.602 47.7994 138.833 47.7994Z" fill="#D1F0FF"/>
<path d="M143.591 48.2627C143.277 48.2627 142.994 48.1926 142.741 48.0555C142.495 47.9183 142.301 47.7233 142.163 47.4703C142.021 47.2112 141.953 46.9095 141.953 46.5681C141.953 46.2359 142.021 45.9433 142.163 45.6904C142.301 45.4313 142.495 45.2332 142.741 45.093C142.994 44.9467 143.277 44.8735 143.591 44.8735C143.976 44.8735 144.3 44.9772 144.564 45.1783C144.835 45.3734 145.002 45.6416 145.069 45.9829H144.503C144.46 45.7818 144.355 45.6263 144.182 45.5197C144.01 45.4069 143.807 45.349 143.579 45.349C143.397 45.349 143.225 45.3947 143.062 45.4831C142.895 45.5745 142.766 45.7117 142.668 45.8976C142.569 46.0774 142.52 46.2999 142.52 46.5681C142.52 46.8363 142.569 47.0649 142.668 47.2508C142.766 47.4307 142.895 47.5678 143.062 47.6653C143.225 47.7568 143.397 47.7994 143.579 47.7994C143.807 47.7994 144.01 47.7476 144.182 47.641C144.355 47.5282 144.46 47.3697 144.503 47.1655H145.069C145.002 47.4916 144.835 47.7568 144.564 47.9579C144.3 48.1621 143.976 48.2627 143.591 48.2627Z" fill="#D1F0FF"/>
<path d="M146.704 48.1897V43.4961H147.258V46.3123L148.589 44.9591H149.278L147.825 46.4098L149.463 48.1897H148.749L147.258 46.5195V48.1897H146.704Z" fill="#D1F0FF"/>
</g>
</g>
<defs>
<clipPath id="clip0_2003_2851">
<rect width="59.7127" height="67.7135" fill="white"/>
</clipPath>
<clipPath id="clip1_2003_2851">
<rect width="17.0344" height="16.6655" fill="white" transform="translate(9.03027 25.9849)"/>
</clipPath>
<clipPath id="clip2_2003_2851">
<rect width="24.5231" height="16.6655" fill="white" transform="translate(25.8096 25.9849)"/>
</clipPath>
<clipPath id="clip3_2003_2851">
<rect width="15.544" height="15.2147" fill="white" transform="translate(66.9902 22.0947)"/>
</clipPath>
<clipPath id="clip4_2003_2851">
<rect width="9.58261" height="11.2038" fill="white" transform="translate(82.6191 26.2764)"/>
</clipPath>
<clipPath id="clip5_2003_2851">
<rect width="3.264" height="15.6292" fill="white" transform="translate(94.2891 21.6802)"/>
</clipPath>
<clipPath id="clip6_2003_2851">
<rect width="3.94143" height="15.6902" fill="white" transform="translate(99.5176 21.6191)"/>
</clipPath>
<clipPath id="clip7_2003_2851">
<rect width="22.3923" height="15.2147" fill="white" transform="translate(104.337 22.0947)"/>
</clipPath>
<clipPath id="clip8_2003_2851">
<rect width="10.3093" height="11.1672" fill="white" transform="translate(127.301 26.313)"/>
</clipPath>
<clipPath id="clip9_2003_2851">
<rect width="10.4448" height="15.7999" fill="white" transform="translate(139.252 21.6802)"/>
</clipPath>
<clipPath id="clip10_2003_2851">
<rect width="83.5584" height="10.1432" fill="white" transform="translate(67.4414 40.917)"/>
</clipPath>
</defs>
</svg>
