<svg width="340" height="148" viewBox="0 0 340 148" fill="none" xmlns="http://www.w3.org/2000/svg">
<mask id="mask0_2003_3420" style="mask-type:luminance" maskUnits="userSpaceOnUse" x="0" y="0" width="135" height="148">
<path d="M0 0H134.453V148H0V0Z" fill="white"/>
</mask>
<g mask="url(#mask0_2003_3420)">
<path d="M4.65232 39.2499L67.1016 4.62313L129.558 39.2499V108.517L67.1016 143.177L4.65232 108.517V39.2499ZM0 36.6653V111.108L67.1016 148.333L134.203 111.108V36.6653L67.1016 -0.55957L0 36.6653Z" fill="#062036"/>
</g>
<path d="M58.6877 56.7954L43.4896 93.2209H35.5301L20.332 56.7954H27.4041C28.1599 56.7954 28.77 56.9686 29.2345 57.3017C29.7129 57.6414 30.0735 58.0744 30.3161 58.6074L37.6656 78.1124C37.9984 78.9651 38.3312 79.8977 38.664 80.9103C38.9968 81.9228 39.3088 82.982 39.6069 84.0812C39.8427 82.982 40.1131 81.9228 40.4112 80.9103C40.7232 79.8977 41.056 78.9651 41.4096 78.1124L48.7036 58.6074C48.8838 58.1477 49.2166 57.728 49.702 57.355C50.2012 56.9819 50.8183 56.7954 51.5601 56.7954H58.6877Z" fill="#062036"/>
<path d="M113.329 56.7954L101.625 93.2209H93.6659L86.5383 70.6515C86.3858 70.2984 86.2471 69.9054 86.1223 69.479C86.0114 69.0527 85.8866 68.613 85.7618 68.1467C85.6509 68.613 85.5261 69.0527 85.4013 69.479C85.2903 69.9054 85.1586 70.2984 85.013 70.6515L77.7745 93.2209H69.8149L58.1113 56.7954H65.4885C66.265 56.7954 66.9029 56.9686 67.4021 57.3017C67.9152 57.6214 68.248 58.0611 68.4005 58.6074L73.6144 77.6061C73.7808 78.2123 73.9334 78.8718 74.0859 79.578C74.2315 80.2908 74.391 81.0302 74.5574 81.7896C74.8694 80.2308 75.2507 78.8319 75.6945 77.6061L81.8513 58.6074C81.9969 58.1477 82.3228 57.728 82.822 57.355C83.3351 56.9819 83.966 56.7954 84.7079 56.7954H87.3149C88.0706 56.7954 88.6808 56.9686 89.1453 57.3017C89.6237 57.6414 89.9842 58.0744 90.2269 58.6074L96.3006 77.6061C96.7582 78.7786 97.1465 80.1109 97.4654 81.6031C97.5902 80.8437 97.7289 80.1309 97.8814 79.4714C98.027 78.8185 98.1865 78.1924 98.3529 77.6061L103.539 58.6074C103.685 58.1277 104.017 57.7147 104.537 57.355C105.051 56.9819 105.681 56.7954 106.423 56.7954H113.329Z" fill="#062036"/>
<path d="M185.838 48.292L171.971 81.5465H164.705L150.838 48.292H157.3C157.979 48.292 158.534 48.4519 158.964 48.7716C159.408 49.0781 159.74 49.4777 159.962 49.9707L166.646 67.7704C166.958 68.5365 167.263 69.3825 167.561 70.3018C167.873 71.2278 168.158 72.1937 168.421 73.2062C168.643 72.1937 168.893 71.2278 169.17 70.3018C169.447 69.3825 169.752 68.5365 170.085 67.7704L176.713 49.9707C176.894 49.5444 177.213 49.1647 177.656 48.8249C178.114 48.4719 178.682 48.292 179.348 48.292H185.838Z" fill="#062036"/>
<path d="M200.423 71.9272C198.96 71.9805 197.747 72.1071 196.79 72.3003C195.847 72.4801 195.098 72.6999 194.544 72.9664C193.989 73.2329 193.601 73.546 193.379 73.899C193.171 74.2588 193.074 74.6385 193.074 75.0448C193.074 75.8442 193.296 76.4171 193.739 76.7502C194.197 77.0699 194.876 77.2298 195.764 77.2298C196.721 77.2298 197.553 77.0699 198.26 76.7502C198.981 76.4304 199.702 75.9175 200.423 75.2047V71.9272ZM187.166 61.1621C188.664 59.9031 190.314 58.9705 192.131 58.3643C193.94 57.7447 195.882 57.4316 197.955 57.4316C199.452 57.4316 200.791 57.6648 201.976 58.1244C203.176 58.5908 204.195 59.2369 205.027 60.0696C205.859 60.889 206.497 61.8749 206.94 63.0274C207.384 64.1665 207.606 65.4122 207.606 66.7578V81.5465H204.223C203.536 81.5465 203.009 81.4599 202.642 81.28C202.288 81.0869 201.99 80.7071 201.754 80.1343L201.227 78.8286C200.617 79.3282 200.021 79.7745 199.452 80.1609C198.877 80.5339 198.288 80.8537 197.677 81.1202C197.067 81.3866 196.416 81.5798 195.736 81.7064C195.05 81.8463 194.28 81.9196 193.434 81.9196C192.325 81.9196 191.306 81.773 190.383 81.4932C189.454 81.2134 188.671 80.7938 188.026 80.2408C187.395 79.6946 186.903 79.0151 186.556 78.2157C186.203 77.403 186.029 76.4571 186.029 75.3912C186.029 74.5385 186.251 73.6792 186.695 72.8065C187.139 71.9205 187.901 71.1212 188.997 70.4084C190.085 69.6823 191.555 69.0761 193.406 68.5964C195.272 68.1035 197.608 67.8237 200.423 67.7704V66.7578C200.423 65.3722 200.125 64.3797 199.536 63.7735C198.939 63.1539 198.1 62.8408 197.012 62.8408C196.138 62.8408 195.431 62.9341 194.876 63.1073C194.322 63.2872 193.822 63.4937 193.379 63.7202C192.949 63.9533 192.526 64.1598 192.103 64.333C191.694 64.5129 191.202 64.5995 190.633 64.5995C190.134 64.5995 189.704 64.4862 189.357 64.2531C189.004 64.0066 188.719 63.7135 188.498 63.3738L187.166 61.1621Z" fill="#062036"/>
<path d="M219.658 47.3857V81.5462H212.309V47.3857H219.658Z" fill="#062036"/>
<path d="M232.174 57.8843V81.5462H224.825V57.8843H232.174ZM232.951 51.4093C232.951 51.9622 232.826 52.4884 232.59 52.9814C232.348 53.481 232.022 53.914 231.62 54.2871C231.211 54.6601 230.732 54.9665 230.178 55.193C229.637 55.4062 229.054 55.5128 228.43 55.5128C227.834 55.5128 227.272 55.4062 226.739 55.193C226.219 54.9665 225.754 54.6601 225.352 54.2871C224.943 53.914 224.631 53.481 224.409 52.9814C224.187 52.4884 224.076 51.9622 224.076 51.4093C224.076 50.823 224.187 50.2835 224.409 49.7838C224.631 49.2709 224.943 48.8246 225.352 48.4515C225.754 48.0785 226.219 47.7854 226.739 47.5722C227.272 47.359 227.834 47.2524 228.43 47.2524C229.054 47.2524 229.637 47.359 230.178 47.5722C230.732 47.7854 231.211 48.0785 231.62 48.4515C232.022 48.8246 232.348 49.2709 232.59 49.7838C232.826 50.2835 232.951 50.823 232.951 51.4093Z" fill="#062036"/>
<path d="M285.351 48.292L274.674 81.5465H267.38L260.89 60.949C260.759 60.6292 260.641 60.2761 260.53 59.8831C260.419 59.4967 260.308 59.0837 260.197 58.6574C260.086 59.0837 259.975 59.4967 259.864 59.8831C259.753 60.2761 259.628 60.6292 259.504 60.949L252.903 81.5465H245.637L234.932 48.292H241.699C242.378 48.292 242.954 48.4452 243.418 48.745C243.897 49.0514 244.209 49.4578 244.361 49.9707L249.104 67.3174C249.249 67.8503 249.388 68.4499 249.52 69.1027C249.665 69.7422 249.811 70.4217 249.963 71.1278C250.241 69.6889 250.58 68.4232 250.989 67.3174L256.619 49.9707C256.744 49.5444 257.042 49.1647 257.507 48.8249C257.985 48.4719 258.561 48.292 259.226 48.292H261.584C262.284 48.292 262.846 48.4519 263.275 48.7716C263.698 49.0781 264.024 49.4777 264.246 49.9707L269.821 67.3174C270.223 68.3699 270.569 69.5757 270.847 70.9413C270.972 70.2485 271.103 69.609 271.235 69.0228C271.381 68.4232 271.526 67.8503 271.679 67.3174L276.421 49.9707C276.546 49.531 276.844 49.138 277.309 48.7983C277.787 48.4652 278.363 48.292 279.028 48.292H285.351Z" fill="#062036"/>
<path d="M303.247 66.8646C303.247 66.3183 303.171 65.7721 303.025 65.2391C302.873 64.7062 302.623 64.2399 302.277 63.8269C301.944 63.4005 301.5 63.0541 300.945 62.7877C300.391 62.5212 299.711 62.388 298.921 62.388C297.534 62.388 296.439 62.781 295.648 63.5604C294.851 64.3265 294.331 65.4257 294.095 66.8646H303.247ZM293.984 70.9681C294.22 72.9599 294.851 74.3988 295.87 75.2848C296.882 76.1774 298.186 76.6171 299.781 76.6171C300.647 76.6171 301.389 76.5238 301.999 76.324C302.609 76.1308 303.15 75.911 303.636 75.6578C304.135 75.4113 304.578 75.1915 304.967 74.9917C305.369 74.7985 305.799 74.6986 306.242 74.6986C306.832 74.6986 307.276 74.9051 307.574 75.3114L309.709 77.8428C308.947 78.6822 308.128 79.3617 307.241 79.8946C306.367 80.4142 305.473 80.8205 304.551 81.1203C303.622 81.4267 302.699 81.6266 301.777 81.7332C300.848 81.8531 299.961 81.9197 299.115 81.9197C297.395 81.9197 295.773 81.6532 294.262 81.1203C292.743 80.5741 291.419 79.7613 290.296 78.6955C289.165 77.6296 288.271 76.3107 287.605 74.7252C286.954 73.1464 286.635 71.3078 286.635 69.2094C286.635 67.6306 286.912 66.1318 287.467 64.7062C288.035 63.2873 288.853 62.0416 289.907 60.9757C290.961 59.9099 292.223 59.0705 293.707 58.4443C295.204 57.8248 296.896 57.5117 298.782 57.5117C300.425 57.5117 301.923 57.7649 303.275 58.2578C304.62 58.7374 305.778 59.4436 306.742 60.3629C307.719 61.2888 308.475 62.428 309.016 63.7736C309.571 65.1259 309.848 66.6514 309.848 68.3567C309.848 68.8897 309.82 69.3293 309.765 69.6624C309.723 70.0022 309.64 70.2686 309.515 70.4618C309.404 70.6616 309.238 70.7949 309.016 70.8615C308.808 70.9348 308.544 70.9681 308.212 70.9681H293.984Z" fill="#062036"/>
<path d="M320.894 75.0979C321.449 75.6841 322.045 76.1038 322.697 76.3502C323.363 76.5834 324.028 76.6966 324.694 76.6966C325.373 76.6966 326.011 76.5767 326.607 76.3236C327.197 76.0771 327.696 75.6707 328.105 75.0979C328.528 74.5316 328.861 73.7855 329.104 72.8596C329.339 71.9203 329.464 70.7545 329.464 69.3689C329.464 68.1965 329.367 67.1972 329.187 66.3579C329 65.5252 328.729 64.8524 328.382 64.3328C328.029 63.7998 327.585 63.4201 327.051 63.187C326.51 62.9605 325.9 62.8406 325.221 62.8406C324.333 62.8406 323.557 63.0271 322.891 63.4001C322.226 63.7732 321.56 64.3328 320.894 65.0789V75.0979ZM320.894 60.3891C321.851 59.5231 322.898 58.8303 324.028 58.3107C325.151 57.7778 326.42 57.5113 327.828 57.5113C329.214 57.5113 330.469 57.7911 331.6 58.3374C332.744 58.8903 333.721 59.6697 334.539 60.6822C335.351 61.6948 335.968 62.9205 336.397 64.3594C336.841 65.785 337.063 67.3704 337.063 69.1291C337.063 71.0476 336.8 72.793 336.287 74.3518C335.787 75.9172 335.073 77.2562 334.151 78.3753C333.222 79.4945 332.113 80.3671 330.823 80.9867C329.547 81.6062 328.133 81.9193 326.58 81.9193C325.838 81.9193 325.172 81.846 324.583 81.7061C324.007 81.5596 323.474 81.373 322.974 81.1199C322.475 80.8734 322.018 80.5803 321.615 80.2406C321.227 79.8875 320.839 79.4945 320.451 79.0681L320.201 80.2672C320.069 80.7469 319.854 81.0866 319.563 81.2798C319.286 81.4596 318.904 81.5462 318.426 81.5462H313.545V47.3857H320.894V60.3891Z" fill="#062036"/>
<mask id="mask1_2003_3420" style="mask-type:luminance" maskUnits="userSpaceOnUse" x="151" y="89" width="189" height="23">
<path d="M340.001 89.4316H151.855V111.601H340.001V89.4316Z" fill="white"/>
</mask>
<g mask="url(#mask1_2003_3420)">
<path d="M157.673 105.488C156.952 105.488 156.301 105.354 155.732 105.088C155.157 104.822 154.692 104.409 154.345 103.836C153.992 103.269 153.818 102.543 153.818 101.651V95.3354H155.066V101.677C155.066 102.637 155.302 103.343 155.787 103.782C156.287 104.209 156.925 104.422 157.701 104.422C158.478 104.422 159.102 104.209 159.587 103.782C160.065 103.343 160.308 102.637 160.308 101.677V95.3354H161.556V101.651C161.556 102.543 161.376 103.269 161.029 103.836C160.676 104.409 160.204 104.822 159.615 105.088C159.039 105.354 158.394 105.488 157.673 105.488Z" fill="#062036"/>
<path d="M165.518 105.328V98.2666H166.655L166.738 99.2792C166.974 98.9061 167.293 98.613 167.681 98.3998C168.069 98.1867 168.513 98.0801 169.012 98.0801C169.601 98.0801 170.101 98.2 170.51 98.4265C170.933 98.6596 171.265 99.006 171.508 99.4657C171.744 99.0393 172.09 98.7063 172.534 98.4531C172.992 98.2066 173.484 98.0801 174.004 98.0801C174.892 98.0801 175.592 98.3399 176.112 98.8528C176.646 99.3524 176.916 100.132 176.916 101.198V105.328H175.668V101.331C175.668 100.585 175.509 100.039 175.197 99.6789C174.898 99.3058 174.462 99.1193 173.893 99.1193C173.297 99.1193 172.812 99.3458 172.423 99.7854C172.035 100.212 171.841 100.845 171.841 101.677V105.328H170.593V101.331C170.593 100.585 170.433 100.039 170.121 99.6789C169.823 99.3058 169.386 99.1193 168.818 99.1193C168.222 99.1193 167.736 99.3458 167.348 99.7854C166.96 100.212 166.766 100.845 166.766 101.677V105.328H165.518Z" fill="#062036"/>
<path d="M189.43 105.488C188.543 105.488 187.801 105.275 187.212 104.848C186.636 104.422 186.296 103.849 186.186 103.116H187.461C187.551 103.489 187.766 103.809 188.099 104.075C188.432 104.342 188.876 104.475 189.43 104.475C189.943 104.475 190.325 104.369 190.567 104.155C190.824 103.942 190.956 103.696 190.956 103.409C190.956 102.983 190.789 102.703 190.457 102.557C190.138 102.417 189.694 102.284 189.125 102.157C188.716 102.09 188.321 101.984 187.933 101.837C187.544 101.697 187.212 101.491 186.934 101.224C186.671 100.958 186.546 100.611 186.546 100.185C186.546 99.5856 186.782 99.086 187.267 98.6929C187.746 98.2866 188.39 98.0801 189.209 98.0801C189.985 98.0801 190.623 98.2666 191.122 98.6396C191.621 99.0127 191.913 99.5589 192.01 100.265H190.762C190.72 99.892 190.567 99.6122 190.29 99.4124C190.013 99.1992 189.652 99.0926 189.209 99.0926C188.744 99.0926 188.39 99.1926 188.155 99.3857C187.912 99.5656 187.794 99.7988 187.794 100.079C187.794 100.365 187.947 100.585 188.266 100.745C188.578 100.905 189.001 101.051 189.541 101.171C189.985 101.264 190.408 101.378 190.817 101.517C191.24 101.664 191.58 101.864 191.843 102.13C192.1 102.397 192.231 102.79 192.231 103.303C192.245 103.942 191.996 104.469 191.483 104.875C190.983 105.288 190.297 105.488 189.43 105.488Z" fill="#062036"/>
<path d="M196.703 96.6943C196.461 96.6943 196.26 96.6143 196.093 96.4545C195.927 96.2946 195.844 96.1014 195.844 95.8682C195.844 95.6417 195.927 95.4552 196.093 95.3087C196.26 95.1488 196.461 95.0688 196.703 95.0688C196.939 95.0688 197.147 95.1488 197.314 95.3087C197.48 95.4552 197.563 95.6417 197.563 95.8682C197.563 96.1014 197.48 96.2946 197.314 96.4545C197.147 96.6143 196.939 96.6943 196.703 96.6943ZM196.093 105.328V98.2664H197.341V105.328H196.093Z" fill="#062036"/>
<path d="M204.262 105.488C203.375 105.488 202.633 105.275 202.044 104.848C201.468 104.422 201.129 103.849 201.018 103.116H202.293C202.383 103.489 202.598 103.809 202.931 104.075C203.264 104.342 203.708 104.475 204.262 104.475C204.775 104.475 205.157 104.369 205.399 104.155C205.656 103.942 205.788 103.696 205.788 103.409C205.788 102.983 205.621 102.703 205.289 102.557C204.97 102.417 204.526 102.284 203.957 102.157C203.548 102.09 203.153 101.984 202.765 101.837C202.377 101.697 202.044 101.491 201.766 101.224C201.503 100.958 201.378 100.611 201.378 100.185C201.378 99.5856 201.614 99.086 202.099 98.6929C202.578 98.2866 203.222 98.0801 204.041 98.0801C204.817 98.0801 205.455 98.2666 205.954 98.6396C206.453 99.0127 206.745 99.5589 206.842 100.265H205.594C205.552 99.892 205.399 99.6122 205.122 99.4124C204.845 99.1992 204.484 99.0926 204.041 99.0926C203.576 99.0926 203.222 99.1926 202.987 99.3857C202.744 99.5656 202.626 99.7988 202.626 100.079C202.626 100.365 202.779 100.585 203.098 100.745C203.41 100.905 203.833 101.051 204.373 101.171C204.817 101.264 205.24 101.378 205.649 101.517C206.072 101.664 206.412 101.864 206.675 102.13C206.932 102.397 207.064 102.79 207.064 103.303C207.077 103.942 206.828 104.469 206.315 104.875C205.816 105.288 205.129 105.488 204.262 105.488Z" fill="#062036"/>
<path d="M213.701 105.328C213.014 105.328 212.48 105.181 212.092 104.875C211.718 104.555 211.537 103.989 211.537 103.169V99.279H210.262V98.2664H211.537L211.704 96.561H212.785V98.2664H214.949V99.279H212.785V103.169C212.785 103.616 212.876 103.915 213.063 104.075C213.243 104.222 213.576 104.288 214.061 104.288H214.81V105.328H213.701Z" fill="#062036"/>
<path d="M221.766 105.488C221.058 105.488 220.434 105.335 219.88 105.035C219.339 104.735 218.916 104.309 218.604 103.756C218.306 103.209 218.16 102.55 218.16 101.784C218.16 101.058 218.306 100.418 218.604 99.8654C218.916 99.2991 219.339 98.8661 219.88 98.5597C220.434 98.24 221.072 98.0801 221.793 98.0801C222.514 98.0801 223.131 98.24 223.651 98.5597C224.164 98.8661 224.567 99.2725 224.844 99.7854C225.121 100.285 225.26 100.818 225.26 101.384C225.26 101.491 225.246 101.597 225.232 101.704C225.232 101.811 225.232 101.93 225.232 102.05H219.38C219.415 102.603 219.547 103.056 219.769 103.409C220.004 103.769 220.303 104.036 220.656 104.209C221.003 104.389 221.377 104.475 221.766 104.475C222.279 104.475 222.708 104.369 223.041 104.155C223.388 103.929 223.651 103.616 223.818 103.223H225.038C224.851 103.882 224.47 104.422 223.901 104.848C223.346 105.275 222.632 105.488 221.766 105.488ZM221.766 99.0926C221.169 99.0926 220.642 99.2725 220.185 99.6256C219.72 99.9653 219.464 100.472 219.408 101.144H224.04C223.998 100.505 223.769 100.012 223.346 99.6522C222.916 99.2792 222.39 99.0926 221.766 99.0926Z" fill="#062036"/>
<path d="M228.844 105.328V98.2666H229.981L230.064 99.2792C230.3 98.9061 230.619 98.613 231.007 98.3998C231.395 98.1867 231.839 98.0801 232.338 98.0801C232.928 98.0801 233.427 98.2 233.836 98.4265C234.259 98.6596 234.592 99.006 234.834 99.4657C235.07 99.0393 235.417 98.7063 235.86 98.4531C236.318 98.2066 236.81 98.0801 237.33 98.0801C238.218 98.0801 238.918 98.3399 239.438 98.8528C239.972 99.3524 240.242 100.132 240.242 101.198V105.328H238.994V101.331C238.994 100.585 238.835 100.039 238.523 99.6789C238.225 99.3058 237.788 99.1193 237.219 99.1193C236.623 99.1193 236.138 99.3458 235.749 99.7854C235.361 100.212 235.167 100.845 235.167 101.677V105.328H233.919V101.331C233.919 100.585 233.76 100.039 233.448 99.6789C233.149 99.3058 232.713 99.1193 232.144 99.1193C231.548 99.1193 231.062 99.3458 230.674 99.7854C230.286 100.212 230.092 100.845 230.092 101.677V105.328H228.844Z" fill="#062036"/>
<path d="M246.503 105.488C245.893 105.488 245.38 105.388 244.978 105.195C244.569 105.001 244.264 104.735 244.062 104.395C243.875 104.062 243.785 103.702 243.785 103.329C243.785 102.603 244.069 102.044 244.645 101.651C245.213 101.264 245.99 101.064 246.975 101.064H248.971V100.985C248.971 100.365 248.805 99.892 248.472 99.5723C248.139 99.2525 247.682 99.0926 247.113 99.0926C246.628 99.0926 246.212 99.2125 245.865 99.439C245.512 99.6722 245.29 100.019 245.2 100.478H243.924C243.979 99.9653 244.153 99.5323 244.451 99.1726C244.763 98.8195 245.151 98.553 245.616 98.3732C246.094 98.18 246.593 98.0801 247.113 98.0801C248.146 98.0801 248.923 98.3465 249.443 98.8795C249.956 99.4124 250.219 100.119 250.219 100.985V105.328H249.11L249.027 104.049C248.819 104.462 248.514 104.808 248.112 105.088C247.723 105.355 247.183 105.488 246.503 105.488ZM246.697 104.475C247.176 104.475 247.585 104.362 247.917 104.129C248.264 103.902 248.528 103.596 248.694 103.223C248.874 102.836 248.971 102.423 248.971 101.997H247.085C246.344 101.997 245.824 102.124 245.532 102.37C245.234 102.603 245.089 102.896 245.089 103.249C245.089 103.623 245.227 103.929 245.505 104.155C245.782 104.369 246.177 104.475 246.697 104.475Z" fill="#062036"/>
<path d="M263.08 105.328L259.197 95.3354H260.528L263.829 104.049L267.129 95.3354H268.46L264.55 105.328H263.08Z" fill="#062036"/>
<path d="M274.181 105.488C273.571 105.488 273.058 105.388 272.655 105.195C272.246 105.001 271.941 104.735 271.74 104.395C271.553 104.062 271.463 103.702 271.463 103.329C271.463 102.603 271.747 102.044 272.323 101.651C272.891 101.264 273.668 101.064 274.652 101.064H276.649V100.985C276.649 100.365 276.483 99.892 276.15 99.5723C275.817 99.2525 275.359 99.0926 274.791 99.0926C274.306 99.0926 273.89 99.2125 273.543 99.439C273.189 99.6722 272.967 100.019 272.877 100.478H271.602C271.657 99.9653 271.83 99.5323 272.128 99.1726C272.441 98.8195 272.829 98.553 273.293 98.3732C273.772 98.18 274.271 98.0801 274.791 98.0801C275.824 98.0801 276.601 98.3465 277.121 98.8795C277.634 99.4124 277.897 100.119 277.897 100.985V105.328H276.788L276.705 104.049C276.497 104.462 276.191 104.808 275.789 105.088C275.401 105.355 274.86 105.488 274.181 105.488ZM274.375 104.475C274.853 104.475 275.262 104.362 275.595 104.129C275.942 103.902 276.205 103.596 276.372 103.223C276.552 102.836 276.649 102.423 276.649 101.997H274.763C274.021 101.997 273.501 102.124 273.21 102.37C272.912 102.603 272.766 102.896 272.766 103.249C272.766 103.623 272.905 103.929 273.182 104.155C273.46 104.369 273.855 104.475 274.375 104.475Z" fill="#062036"/>
<path d="M281.703 105.328V95.0688H282.951V105.328H281.703Z" fill="#062036"/>
<path d="M287.678 96.6943C287.435 96.6943 287.234 96.6143 287.068 96.4545C286.902 96.2946 286.818 96.1014 286.818 95.8682C286.818 95.6417 286.902 95.4552 287.068 95.3087C287.234 95.1488 287.435 95.0688 287.678 95.0688C287.914 95.0688 288.122 95.1488 288.288 95.3087C288.455 95.4552 288.538 95.6417 288.538 95.8682C288.538 96.1014 288.455 96.2946 288.288 96.4545C288.122 96.6143 287.914 96.6943 287.678 96.6943ZM287.068 105.328V98.2664H288.316V105.328H287.068Z" fill="#062036"/>
<path d="M294.905 105.328V96.3214H291.826V95.3354H299.259V96.3214H296.153V105.328H294.905Z" fill="#062036"/>
<path d="M302.652 105.328V98.2666H303.789L303.873 99.5989C304.108 99.1393 304.462 98.7729 304.927 98.5064C305.384 98.2266 305.96 98.0801 306.646 98.0801V99.3325H306.313C305.869 99.3325 305.46 99.4124 305.093 99.5723C304.719 99.7188 304.427 99.9653 304.205 100.318C303.997 100.658 303.9 101.138 303.9 101.757V105.328H302.652Z" fill="#062036"/>
<path d="M312.413 105.488C311.803 105.488 311.29 105.388 310.888 105.195C310.479 105.001 310.174 104.735 309.973 104.395C309.785 104.062 309.695 103.702 309.695 103.329C309.695 102.603 309.98 102.044 310.555 101.651C311.124 101.264 311.9 101.064 312.885 101.064H314.882V100.985C314.882 100.365 314.715 99.892 314.382 99.5723C314.049 99.2525 313.592 99.0926 313.023 99.0926C312.538 99.0926 312.122 99.2125 311.775 99.439C311.422 99.6722 311.2 100.019 311.11 100.478H309.834C309.889 99.9653 310.063 99.5323 310.361 99.1726C310.673 98.8195 311.061 98.553 311.526 98.3732C312.004 98.18 312.503 98.0801 313.023 98.0801C314.056 98.0801 314.833 98.3465 315.353 98.8795C315.866 99.4124 316.13 100.119 316.13 100.985V105.328H315.02L314.937 104.049C314.729 104.462 314.424 104.808 314.022 105.088C313.633 105.355 313.093 105.488 312.413 105.488ZM312.607 104.475C313.086 104.475 313.495 104.362 313.828 104.129C314.174 103.902 314.438 103.596 314.604 103.223C314.784 102.836 314.882 102.423 314.882 101.997H312.996C312.254 101.997 311.734 102.124 311.443 102.37C311.144 102.603 310.999 102.896 310.999 103.249C310.999 103.623 311.137 103.929 311.415 104.155C311.692 104.369 312.087 104.475 312.607 104.475Z" fill="#062036"/>
<path d="M323.319 105.488C322.612 105.488 321.974 105.335 321.406 105.035C320.851 104.735 320.414 104.309 320.102 103.756C319.783 103.189 319.631 102.53 319.631 101.784C319.631 101.058 319.783 100.418 320.102 99.8654C320.414 99.2991 320.851 98.8661 321.406 98.5597C321.974 98.24 322.612 98.0801 323.319 98.0801C324.186 98.0801 324.914 98.3066 325.51 98.7462C326.121 99.1726 326.495 99.7588 326.647 100.505H325.372C325.275 100.065 325.039 99.7255 324.651 99.4923C324.262 99.2459 323.805 99.1193 323.292 99.1193C322.883 99.1193 322.494 99.2192 322.127 99.4124C321.752 99.6122 321.461 99.912 321.239 100.318C321.018 100.711 320.907 101.198 320.907 101.784C320.907 102.37 321.018 102.87 321.239 103.276C321.461 103.669 321.752 103.969 322.127 104.182C322.494 104.382 322.883 104.475 323.292 104.475C323.805 104.475 324.262 104.362 324.651 104.129C325.039 103.882 325.275 103.536 325.372 103.09H326.647C326.495 103.802 326.121 104.382 325.51 104.822C324.914 105.268 324.186 105.488 323.319 105.488Z" fill="#062036"/>
<path d="M330.33 105.328V95.0688H331.578V101.224L334.573 98.2664H336.126L332.854 101.437L336.542 105.328H334.934L331.578 101.677V105.328H330.33Z" fill="#062036"/>
</g>
</svg>
